<svg width="121" height="60" viewBox="0 0 121 60" fill="none" xmlns="http://www.w3.org/2000/svg">
<path d="M32.5255 29.6C34.7305 25.4422 36.508 21.0714 37.8306 16.5547L36.5261 16.4155C35.2318 20.7736 33.5071 24.9921 31.3775 29.0087C30.9427 29.8262 30.4991 30.6263 30.0469 31.409C30.6817 31.2003 31.2992 30.9828 31.908 30.7654C32.1167 30.3828 32.3255 30.0001 32.5255 29.6174" fill="white"/>
<path d="M16.0013 20.8595C16.2709 20.329 16.5579 19.8159 16.871 19.3027C16.2535 19.4941 15.6534 19.6854 15.0707 19.8941C15.0012 20.0072 14.9403 20.1289 14.8794 20.2507C12.4773 24.6919 10.6062 29.4003 9.30469 34.2788C9.73084 34.2788 10.1744 34.3484 10.6179 34.3658C11.9014 29.6726 13.7163 25.1411 16.0274 20.8595" fill="white"/>
<path d="M13.4706 27.043L12.9053 28.4084C14.972 30.2312 17.2812 31.7589 19.7671 32.9482C22.3581 34.234 25.1244 35.1307 27.977 35.6094C28.2466 35.2094 28.5162 34.7919 28.7858 34.3658C23.0673 33.4982 17.7362 30.9492 13.4706 27.043" fill="white"/>
<path d="M37.1257 24.3121C34.5591 21.1449 31.3015 18.6073 27.6026 16.8937C24.0524 15.0864 20.1479 14.0828 16.1662 13.9541C12.3135 13.9541 9.57391 15.2152 8.46071 17.4937C7.0866 20.3202 8.53029 24.0425 11.896 27.4517C12.0873 26.9821 12.2786 26.5211 12.4787 26.0515C9.8696 23.1989 8.64334 20.2159 9.67827 18.0938C10.548 16.3544 12.9048 15.3108 16.1662 15.3108C19.9435 15.4327 23.6471 16.389 27.0112 18.1112C30.5187 19.7316 33.6094 22.1322 36.0473 25.1296C37.9606 27.6604 38.552 30.0173 37.6997 31.7567C36.8474 33.4961 34.4732 34.5397 31.2031 34.5397C30.89 34.5397 30.5682 34.5397 30.2465 34.5397C29.9768 34.9745 29.7073 35.4094 29.429 35.8268C30.0378 35.8877 30.6291 35.9225 31.1683 35.9225C35.0298 35.9225 37.7606 34.6701 38.8738 32.3829C39.987 30.0956 39.326 27.3125 37.0909 24.3469" fill="white"/>
<path d="M29.003 33.1306C23.6283 41.871 17.1404 48.0284 13.0702 48.0284C12.5711 48.0368 12.0778 47.9202 11.6353 47.6892C9.41755 46.5151 8.83488 42.0188 10.2699 35.6788C9.81763 35.6788 9.40017 35.6266 8.95663 35.5831C7.48685 42.2362 8.08694 47.2891 11.0265 48.8459C11.6585 49.1698 12.3602 49.3341 13.0702 49.3242C17.9144 49.3242 25.0111 42.5493 30.8902 32.5044C30.2728 32.7131 29.6466 32.9132 29.003 33.1045" fill="white"/>
<path d="M25.368 32.3044C24.3157 32.5479 23.2634 32.7653 22.2197 32.948C23.0894 33.2872 23.8982 33.5829 24.7331 33.8177L25.6811 33.6176C29.8424 32.685 33.8858 31.2877 37.735 29.4518C37.6525 28.9994 37.5243 28.5565 37.3523 28.1299C33.5323 29.9797 29.5106 31.3806 25.368 32.3044" fill="white"/>
<path d="M9.1043 20.651C9.16174 21.1071 9.26668 21.556 9.4174 21.9903C13.4055 19.9976 17.6231 18.5021 21.9757 17.5375L23.8195 17.1461C22.9498 16.8243 22.0801 16.5547 21.2104 16.3286C17.0134 17.3 12.9445 18.7594 9.08691 20.6771" fill="white"/>
<path d="M19.7585 33.3395C17.5395 33.6494 15.3024 33.8121 13.0619 33.8266C6.71317 33.8266 2.42558 32.3481 1.87768 29.9738C1.40804 27.9561 3.73013 25.2079 8.20035 22.651C8.04353 22.2209 7.92137 21.7788 7.83506 21.3291C2.76477 24.1643 -0.0965126 27.4169 0.555756 30.2782C1.2776 33.3917 5.83478 35.1833 13.0619 35.1833C16.0932 35.1504 19.1161 34.8594 22.098 34.3136C21.3153 34.0092 20.5412 33.6787 19.7585 33.3048" fill="white"/>
<path d="M46.8233 19.5643C46.1015 16.4508 41.5443 14.668 34.3171 14.668C30.8121 14.6965 27.3177 15.0576 23.8809 15.7464C24.681 16.0334 25.4811 16.3465 26.2725 16.6943C28.921 16.2633 31.5991 16.0394 34.2824 16.0247C40.6311 16.0247 44.9187 17.4945 45.4666 19.8774C45.8927 21.6951 44.0751 24.0606 40.5006 26.3653C39.8861 26.7596 39.2338 27.1422 38.5438 27.5133C38.7224 27.9354 38.865 28.3718 38.97 28.8178C39.7701 28.3917 40.5267 27.9481 41.2312 27.5046C45.3796 24.8346 47.319 22.0168 46.7885 19.5643" fill="white"/>
<path d="M27.1071 25.0424C27.1088 25.7841 26.8904 26.5097 26.4796 27.1273C26.0688 27.7448 25.484 28.2266 24.7992 28.5117C24.1144 28.7967 23.3605 28.8722 22.6328 28.7285C21.9051 28.5849 21.2364 28.2286 20.7113 27.7047C20.1862 27.1808 19.8284 26.5129 19.683 25.7856C19.5377 25.0582 19.6114 24.3041 19.8948 23.6187C20.1783 22.9333 20.6587 22.3473 21.2753 21.9351C21.8919 21.5228 22.617 21.3027 23.3587 21.3027C24.3513 21.3027 25.3034 21.6965 26.0061 22.3975C26.7088 23.0986 27.1048 24.0498 27.1071 25.0424" fill="white"/>
<path d="M17.8273 17.5893C18.3056 16.7892 18.7927 15.9978 19.2971 15.2411C18.8101 15.1629 18.323 15.0933 17.8534 15.0498C17.2272 16.0413 16.6011 17.0762 16.001 18.1372C16.5924 17.9459 17.2098 17.7633 17.8273 17.5893Z" fill="white"/>
<path d="M20.1497 14.0238C25.1418 6.73581 30.6991 1.79597 34.3431 1.79597C34.8411 1.78877 35.3334 1.90216 35.7781 2.12645C38.135 3.37881 38.6481 8.39693 36.8391 15.3892C37.2914 15.3892 37.7088 15.4675 38.1437 15.5284C39.9874 8.24038 39.5091 2.63087 36.4043 0.978456C35.7731 0.651501 35.0713 0.484281 34.3605 0.491431C30.099 0.491431 24.1155 5.70959 18.7061 13.7977C19.1844 13.8586 19.6627 13.9368 20.141 14.0238" fill="white"/>
<path d="M49.267 59.4731V44.6797L42.2921 53.4722L35.2824 44.6797V59.4731H32.0732V38.6875H33.9431L42.2921 49.2281L50.6324 38.6875H52.4675V59.4731H49.267Z" fill="white"/>
<path d="M67.94 59.4731V44.8014L56.9558 59.4731H55.0859V38.6875H58.2864V53.3505L69.2793 38.6875H71.1491V59.4731H67.94Z" fill="white"/>
<path d="M117.791 59.4731V44.8014L106.806 59.4731H104.937V38.6875H108.137V53.3505L119.13 38.6875H121V59.4731H117.791Z" fill="white"/>
<path d="M89.9051 31.8007V28.0958H86.1742V31.8007H84.2695V22.7559H86.1742V26.4173H89.9051V22.7559H91.801V31.8007H89.9051Z" fill="white"/>
<path d="M99.638 31.8007V26.1042L95.0634 31.8007H93.9502V22.7559H95.8548V28.4523L100.412 22.7559H101.543V31.8007H99.638Z" fill="white"/>
<path d="M107.291 24.4427C106.056 24.4427 105.09 25.0167 105.09 26.1821C105.09 27.3475 106.056 27.9215 107.291 27.9215H108.847V24.4427H107.291ZM108.847 31.8003V29.5913H107.786C106.856 29.5913 106.604 29.8261 105.864 30.8958L105.238 31.7655H103.116L103.942 30.5653C104.306 29.9386 104.798 29.3961 105.386 28.9738C104.779 28.7908 104.248 28.4152 103.873 27.9037C103.498 27.3923 103.299 26.7727 103.308 26.1386C103.308 24.2253 104.786 22.7207 107.482 22.7207H110.769V31.7655L108.847 31.8003Z" fill="white"/>
<path d="M113.355 31.8007L115.338 28.5306L111.833 22.7559H113.999L116.416 26.7043L118.834 22.7559H120.991L115.503 31.8007H113.355Z" fill="white"/>
<path d="M95.3694 39.4272C94.2316 39.4184 93.1098 39.6967 92.1081 40.2364C91.1063 40.776 90.2568 41.5596 89.6382 42.5146V38.688H86.429V48.0285C86.3911 49.2788 85.9196 50.477 85.0954 51.418C84.2711 52.3589 83.1454 52.984 81.9109 53.1862C80.6765 53.3884 79.4101 53.1551 78.3287 52.5263C77.2474 51.8974 76.4183 50.9122 75.9835 49.7393C75.5487 48.5664 75.5352 47.2788 75.9454 46.097C76.3555 44.9153 77.1638 43.9129 78.2318 43.2616C79.2997 42.6102 80.5609 42.3505 81.7993 42.5268C83.0377 42.703 84.1764 43.3044 85.0201 44.2279V40.9753C83.7916 39.9769 82.2547 39.4359 80.6717 39.4446C75.7057 39.4446 72.3574 43.2452 72.3574 48.0285C72.3574 52.8118 75.7057 56.5775 80.6717 56.5775C81.8068 56.5941 82.9275 56.3219 83.9285 55.7864C84.9296 55.2509 85.778 54.4697 86.3942 53.5162V59.491H89.7251V47.6023C89.8516 46.3802 90.3923 45.2381 91.2574 44.3657C92.1226 43.4933 93.2601 42.9431 94.4811 42.8064C95.7021 42.6698 96.9331 42.9549 97.9697 43.6144C99.0063 44.2739 99.7861 45.2682 100.18 46.4321C100.573 47.596 100.557 48.8595 100.133 50.0128C99.7094 51.1661 98.904 52.1397 97.8506 52.7721C96.7972 53.4044 95.5592 53.6574 94.3421 53.489C93.1251 53.3206 92.0023 52.741 91.1601 51.8464V55.1338C92.3744 56.0735 93.8688 56.5788 95.4042 56.5688C100.335 56.5688 103.692 52.7944 103.692 48.0198C103.692 43.2452 100.335 39.4359 95.4042 39.4359" fill="white"/>
</svg>
